<svg width="24" height="24" viewBox="0 0 24 24" fill="none" xmlns="http://www.w3.org/2000/svg">
<path d="M23.4437 0.75L13.1455 8.36991L15.0606 3.87928L23.4437 0.75Z" fill="#E17726"/>
<path d="M0.580405 0.758972L8.94112 3.87982L10.7595 8.42932L0.580405 0.758972ZM19.2994 16.9554L23.851 17.042L22.2603 22.446L16.7062 20.9168L19.2994 16.9554ZM4.70053 16.9554L7.284 20.9168L1.73934 22.4461L0.158249 17.042L4.70053 16.9554Z" fill="#E27625"/>
<path d="M10.5123 7.27052L10.6983 13.2783L5.13225 13.0251L6.7155 10.6365L6.73556 10.6136L10.5123 7.27052ZM13.4301 7.20349L17.2644 10.6137L17.2843 10.6366L18.8676 13.0252L13.3028 13.2783L13.4301 7.20349ZM7.44703 16.9729L10.4862 19.3409L6.95578 21.0454L7.44703 16.9729ZM16.5535 16.9725L17.0346 21.0455L13.514 19.3407L16.5535 16.9725Z" fill="#E27625"/>
<path d="M13.5917 19.1177L17.1642 20.8476L13.8411 22.4269L13.8756 21.3831L13.5917 19.1177ZM10.4073 19.1184L10.1346 21.366L10.157 22.4256L6.82603 20.8476L10.4073 19.1184Z" fill="#D5BFB2"/>
<path d="M9.37566 14.0624L10.3092 16.0244L7.13081 15.0933L9.37566 14.0624ZM14.6243 14.0626L16.8797 15.0933L13.6909 16.0241L14.6243 14.0626Z" fill="#233447"/>
<path d="M7.68994 16.9528L7.17618 21.1753L4.42247 17.0451L7.68994 16.9528ZM16.3102 16.9529L19.5778 17.0451L16.8138 21.1755L16.3102 16.9529ZM18.948 12.7863L16.57 15.2098L14.7366 14.3719L13.8588 16.2173L13.2833 13.044L18.948 12.7863ZM5.05078 12.7863L10.7166 13.044L10.141 16.2173L9.26306 14.3722L7.43934 15.2099L5.05078 12.7863Z" fill="#CC6228"/>
<path d="M4.89056 12.2889L7.581 15.019L7.67419 17.7142L4.89056 12.2889ZM19.1122 12.2841L16.3235 17.719L16.4285 15.019L19.1122 12.2841ZM10.585 12.4552L10.6933 13.1368L10.9609 14.8347L10.7888 20.0496L9.97556 15.8603L9.97528 15.817L10.585 12.4552ZM13.4136 12.4458L14.0249 15.817L14.0246 15.8603L13.2093 20.0601L13.177 19.0096L13.0498 14.8038L13.4136 12.4458Z" fill="#E27525"/>
<path d="M16.6676 14.9106L16.5766 17.2523L13.7384 19.4636L13.1647 19.0582L13.8078 15.7455L16.6676 14.9106ZM7.34222 14.9106L10.1921 15.7455L10.8353 19.0582L10.2615 19.4636L7.42322 17.2521L7.34222 14.9106Z" fill="#F5841F"/>
<path d="M6.28293 20.3304L9.91406 22.0509L9.89868 21.3162L10.2025 21.0495H13.7963L14.1112 21.3153L14.0879 22.0494L17.6961 20.3348L15.9403 21.7856L13.8173 23.2437H10.1734L8.05181 21.7796L6.28293 20.3304Z" fill="#C0AC9D"/>
<path d="M13.3316 18.8887L13.845 19.2514L14.1458 21.6518L13.7105 21.2842H10.2908L9.86372 21.6592L10.1547 19.2516L10.6683 18.8887H13.3316Z" fill="#161616"/>
<path d="M22.7638 0.960938L24 4.66941L23.228 8.41913L23.7777 8.84316L23.0338 9.41072L23.5929 9.84253L22.8526 10.5167L23.3071 10.8458L22.1009 12.2545L17.1537 10.8141L17.1109 10.7911L13.5458 7.78378L22.7638 0.960938ZM1.23619 0.960938L10.4543 7.78378L6.88912 10.7911L6.84628 10.8141L1.89909 12.2545L0.692906 10.8458L1.14703 10.517L0.407156 9.84253L0.965156 9.41119L0.210094 8.84203L0.780563 8.41772L0 4.66959L1.23619 0.960938Z" fill="#763E1A"/>
<path d="M16.9117 10.4991L22.1536 12.0252L23.8566 17.2739H19.3637L16.2681 17.3129L18.5194 12.9247L16.9117 10.4991ZM7.08825 10.4991L5.48034 12.9247L7.73194 17.3129L4.63772 17.2739H0.152905L1.84631 12.0253L7.08825 10.4991ZM15.3172 3.85425L13.8511 7.81415L13.5399 13.1635L13.4209 14.8402L13.4114 19.1235H10.5885L10.5793 14.8483L10.4599 13.1621L10.1486 7.81415L8.68265 3.85425H15.3172Z" fill="#F5841F"/>
</svg>
