<svg width="24" height="24" viewBox="0 0 24 24" fill="none" xmlns="http://www.w3.org/2000/svg">
<path d="M23.6408 14.9029C22.0379 21.3315 15.5261 25.2438 9.09602 23.6407C2.66859 22.038 -1.24421 15.5266 0.359461 9.09838C1.96163 2.66907 8.47346 -1.24364 14.9016 0.359095C21.3313 1.96183 25.2437 8.47401 23.6408 14.9029Z" fill="#F7931A"/>
<path d="M17.2914 10.2905C17.5303 8.69373 16.3144 7.83536 14.6518 7.26274L15.1911 5.09976L13.8744 4.77164L13.3493 6.87762C13.0032 6.79137 12.6476 6.71 12.2943 6.62938L12.8231 4.50952L11.5071 4.1814L10.9674 6.34362C10.6809 6.27837 10.3996 6.21388 10.1266 6.14601L10.1281 6.13926L8.31217 5.68588L7.96189 7.09211C7.96189 7.09211 8.93886 7.31599 8.91823 7.32986C9.45154 7.46299 9.54792 7.81586 9.53179 8.0956L8.91748 10.5597C8.95423 10.5691 9.00187 10.5826 9.05438 10.6036C9.0105 10.5927 8.96362 10.5807 8.91524 10.5691L8.05414 14.0209C7.98888 14.1829 7.8235 14.4259 7.45071 14.3337C7.46383 14.3528 6.4936 14.0948 6.4936 14.0948L5.8399 15.6019L7.55346 16.029C7.87225 16.1089 8.18465 16.1925 8.49218 16.2713L7.94726 18.459L9.26252 18.7871L9.8022 16.6226C10.1615 16.7201 10.5103 16.8102 10.8516 16.8949L10.3138 19.0493L11.6305 19.3774L12.1755 17.1938C14.4208 17.6186 16.1092 17.4473 16.8199 15.4167C17.3926 13.7817 16.7914 12.8386 15.6101 12.2236C16.4704 12.0252 17.1185 11.4593 17.2914 10.2905ZM14.2828 14.5088C13.8759 16.1438 11.1227 15.2599 10.2301 15.0383L10.9532 12.1399C11.8458 12.3627 14.7081 12.8037 14.2828 14.5088ZM14.6901 10.2668C14.3188 11.7541 12.0273 10.9985 11.284 10.8132L11.9396 8.18449C12.6829 8.36974 15.0768 8.71548 14.6901 10.2668Z" fill="white"/>
</svg>
