<svg width="246" height="91" viewBox="0 0 246 91" fill="none" xmlns="http://www.w3.org/2000/svg">
<rect width="246" height="91" rx="10" fill="#4BDB4B"/>
<g opacity="0.2">
<mask id="mask0_1221_17222" style="mask-type:alpha" maskUnits="userSpaceOnUse" x="0" y="0" width="192" height="91">
<rect y="91" width="91" height="192" rx="10" transform="rotate(-90 0 91)" fill="#F7931A"/>
</mask>
<g mask="url(#mask0_1221_17222)">
<path d="M-5 112.942L-5.00001 -10C19.0848 -9.00041 69.7571 -7.10119 79.7677 -7.501C92.2811 -8.00077 103.987 -0.00455951 100.758 7.99166C97.5286 15.9879 108.427 12.9893 116.097 12.4895C123.766 11.9898 127.399 18.9864 118.115 27.4824C108.831 35.9784 132.647 32.4801 144.756 35.4786C156.866 38.4772 136.683 47.4729 135.472 54.4696C134.261 61.4663 158.884 49.9718 163.728 59.967C168.572 69.9623 152.829 70.462 152.829 78.958C152.829 87.454 168.168 79.4576 169.783 96.9493C171.075 110.943 166.285 113.441 163.728 112.942L-5 112.942Z" fill="#B5F9B5"/>
</g>
</g>
</svg>
